<svg width="24" height="24" fill="none" xmlns="http://www.w3.org/2000/svg"><path d="M23.581 21.558L18.33 16.31a10.213 10.213 0 0 0 2.047-6.123C20.377 4.57 15.808 0 10.188 0a10.12 10.12 0 0 0-7.204 2.984A10.124 10.124 0 0 0 0 10.188c0 2.72 1.059 5.28 2.984 7.205a10.124 10.124 0 0 0 7.204 2.983c2.207 0 4.363-.72 6.118-2.042l5.247 5.247a1.428 1.428 0 0 0 2.024 0c.272-.268.423-.63.423-1.012 0-.386-.15-.743-.419-1.011zM10.188 17.5c-4.033 0-7.317-3.28-7.317-7.313 0-4.033 3.284-7.317 7.317-7.317s7.318 3.284 7.318 7.317-3.285 7.313-7.318 7.313z" fill="#D2D2D4"/></svg>