<svg width="24" height="24" viewBox="0 0 24 24" fill="none" xmlns="http://www.w3.org/2000/svg">
<path d="M23.5812 21.5576L18.3294 16.3106C19.6518 14.5506 20.3765 12.3953 20.3765 10.1882C20.3765 4.56941 15.8071 0 10.1882 0C7.46824 0 4.90824 1.05882 2.98353 2.98353C1.05882 4.90824 0 7.46824 0 10.1882C0 12.9082 1.05882 15.4682 2.98353 17.3929C4.90824 19.3176 7.46824 20.3765 10.1882 20.3765C12.3953 20.3765 14.5506 19.6565 16.3059 18.3341L21.5529 23.5812C21.8259 23.8541 22.1835 24 22.5647 24C22.9459 24 23.3082 23.8494 23.5765 23.5812C23.8494 23.3129 24 22.9506 24 22.5694C24 22.1835 23.8494 21.8259 23.5812 21.5576ZM10.1882 17.5012C6.15529 17.5012 2.87059 14.2212 2.87059 10.1882C2.87059 6.15529 6.15529 2.87059 10.1882 2.87059C14.2212 2.87059 17.5059 6.15529 17.5059 10.1882C17.5059 14.2212 14.2212 17.5012 10.1882 17.5012Z" fill="#D2D2D4"/>
</svg>
